<svg width="1440" height="1024" viewBox="0 0 1440 1024" fill="none" xmlns="http://www.w3.org/2000/svg">
<rect width="1440" height="1024" fill="#1E1E1E"/>
<g id="Frame 12" clip-path="url(#clip0_5_78)">
<rect width="1440" height="1024" fill="white"/>
<rect id="Rectangle 1" y="-122" width="1862" height="1146" fill="white"/>
<rect id="Rectangle 8" x="11.6375" y="17.8926" width="1410.72" height="997.154" rx="15" fill="#E9E6E6" fill-opacity="0.58"/>
<g id="Sektor A">
<rect id="Rectangle 20" x="1.48223" y="-1.51316" width="144.729" height="62.945" transform="matrix(-0.0118078 -0.99993 0.999961 -0.00884543 254.317 206.439)" stroke="#F61717" stroke-width="3"/>
<rect id="Rectangle 21" x="1.48223" y="-1.51316" width="144.729" height="61.6519" transform="matrix(-0.0118078 -0.99993 0.999961 -0.00884543 175.441 206.428)" stroke="#F61717" stroke-width="3"/>
<rect id="Rectangle 22" x="1.48223" y="-1.51316" width="144.729" height="62.945" transform="matrix(-0.0118078 -0.99993 0.999961 -0.00884543 99.1502 207.558)" stroke="#F61717" stroke-width="3"/>
<rect id="Rectangle 23" x="1.48223" y="-1.51316" width="144.729" height="61.6519" transform="matrix(-0.0118078 -0.99993 0.999961 -0.00884543 24.153 207.547)" stroke="#F61717" stroke-width="3"/>
<rect id="Rectangle 24" x="1.49504" y="-1.5037" width="143.608" height="61.6527" transform="matrix(-0.00330461 -0.999995 0.999997 -0.00247546 412.094 204.936)" stroke="#27A209" stroke-width="3"/>
<rect id="Rectangle 25" x="1.49504" y="-1.5037" width="143.608" height="61.6527" transform="matrix(-0.00330461 -0.999995 0.999997 -0.00247546 333.217 203.817)" stroke="#27A209" stroke-width="3"/>
<rect id="Rectangle 40" x="1.48223" y="-1.51316" width="144.729" height="62.945" transform="matrix(-0.0118078 -0.99993 0.999961 -0.00884543 721.11 204.201)" stroke="#F61717" stroke-width="3"/>
<rect id="Rectangle 41" x="1.48223" y="-1.51316" width="144.729" height="61.6519" transform="matrix(-0.0118078 -0.99993 0.999961 -0.00884543 646.113 203.07)" stroke="#F61717" stroke-width="3"/>
<rect id="Rectangle 42" x="1.48223" y="-1.51316" width="144.729" height="62.945" transform="matrix(-0.0118078 -0.99993 0.999961 -0.00884543 565.943 201.962)" stroke="#F61717" stroke-width="3"/>
<rect id="Rectangle 43" x="1.48223" y="-1.51316" width="144.729" height="61.6519" transform="matrix(-0.0118078 -0.99993 0.999961 -0.00884543 488.36 204.189)" stroke="#F61717" stroke-width="3"/>
<rect id="Rectangle 53" x="1.48223" y="-1.51316" width="144.729" height="62.945" transform="matrix(-0.0118078 -0.99993 0.999961 -0.00884543 1191.78 200.843)" stroke="#F61717" stroke-width="3"/>
<rect id="Rectangle 54" x="1.48223" y="-1.51316" width="144.729" height="61.6519" transform="matrix(-0.0118078 -0.99993 0.999961 -0.00884543 1111.61 199.713)" stroke="#F61717" stroke-width="3"/>
<rect id="Rectangle 55" x="1.48223" y="-1.51316" width="144.729" height="62.945" transform="matrix(-0.0118078 -0.99993 0.999961 -0.00884543 1034.03 200.843)" stroke="#F61717" stroke-width="3"/>
<rect id="Rectangle 56" x="1.48223" y="-1.51316" width="144.729" height="61.6519" transform="matrix(-0.0118078 -0.99993 0.999961 -0.00884543 956.446 201.951)" stroke="#F61717" stroke-width="3"/>
<rect id="Rectangle 57" x="1.48223" y="-1.51316" width="144.729" height="61.6519" transform="matrix(-0.0118078 -0.99993 0.999961 -0.00884543 1269.37 201.951)" stroke="#F61717" stroke-width="3"/>
<rect id="Rectangle 58" x="1.48223" y="-1.51316" width="144.729" height="61.6519" transform="matrix(-0.0118078 -0.99993 0.999961 -0.00884543 1345.66 198.594)" stroke="#F61717" stroke-width="3"/>
<rect id="Rectangle 44" x="1.49504" y="-1.5037" width="143.608" height="61.6527" transform="matrix(-0.00330461 -0.999995 0.999997 -0.00247546 878.887 202.698)" stroke="#27A209" stroke-width="3"/>
<rect id="Rectangle 45" x="1.49504" y="-1.5037" width="143.608" height="61.6527" transform="matrix(-0.00330461 -0.999995 0.999997 -0.00247546 800.01 202.698)" stroke="#27A209" stroke-width="3"/>
</g>
<g id="Sektor B">
<rect id="Rectangle 5" x="13.1375" y="374.16" width="166.39" height="52.957" stroke="#F61717" stroke-width="3"/>
<rect id="Rectangle 53_2" x="353.211" y="914.705" width="166.39" height="52.957" stroke="#F61717" stroke-width="3"/>
<rect id="Rectangle 54_2" x="353.211" y="849.795" width="166.39" height="52.957" stroke="#F61717" stroke-width="3"/>
<rect id="Rectangle 51" x="11.8444" y="906.871" width="166.39" height="52.957" stroke="#F61717" stroke-width="3"/>
<rect id="Rectangle 52" x="11.8444" y="841.961" width="166.39" height="52.957" stroke="#F61717" stroke-width="3"/>
<rect id="Rectangle 16" x="351.918" y="573.367" width="167.683" height="54.0762" stroke="#F61717" stroke-width="3"/>
<rect id="Rectangle 19" x="351.918" y="781.527" width="167.683" height="52.957" stroke="#F61717" stroke-width="3"/>
<rect id="Rectangle 18" x="351.918" y="707.664" width="167.683" height="52.957" stroke="#F61717" stroke-width="3"/>
<rect id="Rectangle 17" x="351.918" y="639.396" width="167.683" height="52.957" stroke="#F61717" stroke-width="3"/>
<rect id="Rectangle 15" x="351.918" y="508.457" width="167.683" height="52.957" stroke="#F61717" stroke-width="3"/>
<rect id="Rectangle 14" x="351.918" y="439.07" width="167.683" height="54.0762" stroke="#F61717" stroke-width="3"/>
<rect id="Rectangle 13" x="351.918" y="374.16" width="167.683" height="52.957" stroke="#F61717" stroke-width="3"/>
<rect id="Rectangle 6" x="13.1375" y="439.07" width="166.39" height="52.957" stroke="#F61717" stroke-width="3"/>
<rect id="Rectangle 7" x="13.1375" y="507.338" width="166.39" height="52.957" stroke="#27A209" stroke-width="3"/>
<rect id="Rectangle 12" x="13.1375" y="773.693" width="166.39" height="52.957" stroke="#27A209" stroke-width="3"/>
<rect id="Rectangle 11" x="13.1375" y="705.426" width="166.39" height="52.957" stroke="#27A209" stroke-width="3"/>
<rect id="Rectangle 10" x="13.1375" y="637.158" width="166.39" height="52.957" stroke="#27A209" stroke-width="3"/>
<rect id="Rectangle 9" x="13.1375" y="572.248" width="166.39" height="52.957" stroke="#27A209" stroke-width="3"/>
</g>
<g id="Sektor C">
<rect id="Rectangle 33" x="897.381" y="571.867" width="170.683" height="57.0762" stroke="#F61717" stroke-width="3"/>
<rect id="Rectangle 34" x="897.381" y="780.027" width="170.683" height="55.957" stroke="#F61717" stroke-width="3"/>
<rect id="Rectangle 35" x="897.381" y="706.164" width="170.683" height="55.957" stroke="#F61717" stroke-width="3"/>
<rect id="Rectangle 36" x="897.381" y="637.896" width="170.683" height="55.957" stroke="#F61717" stroke-width="3"/>
<rect id="Rectangle 37" x="897.381" y="506.957" width="170.683" height="55.957" stroke="#F61717" stroke-width="3"/>
<rect id="Rectangle 38" x="897.381" y="437.57" width="170.683" height="57.0762" stroke="#F61717" stroke-width="3"/>
<rect id="Rectangle 39" x="897.381" y="372.66" width="170.683" height="55.957" stroke="#F61717" stroke-width="3"/>
<rect id="Rectangle 26" x="535.325" y="571.867" width="170.683" height="57.0762" stroke="#F61717" stroke-width="3"/>
<rect id="Rectangle 27" x="535.325" y="780.027" width="170.683" height="55.957" stroke="#F61717" stroke-width="3"/>
<rect id="Rectangle 28" x="535.325" y="706.164" width="170.683" height="55.957" stroke="#F61717" stroke-width="3"/>
<rect id="Rectangle 29" x="535.325" y="637.896" width="170.683" height="55.957" stroke="#F61717" stroke-width="3"/>
<rect id="Rectangle 30" x="535.325" y="506.957" width="170.683" height="55.957" stroke="#F61717" stroke-width="3"/>
<rect id="Rectangle 31" x="535.325" y="437.57" width="170.683" height="57.0762" stroke="#F61717" stroke-width="3"/>
<rect id="Rectangle 32" x="535.325" y="372.66" width="170.683" height="55.957" stroke="#F61717" stroke-width="3"/>
<rect id="Rectangle 46" x="1082.29" y="372.66" width="169.39" height="55.957" stroke="#F61717" stroke-width="3"/>
<rect id="Rectangle 47" x="1082.29" y="437.57" width="169.39" height="55.957" stroke="#F61717" stroke-width="3"/>
<rect id="Rectangle 48" x="1082.29" y="505.838" width="169.39" height="55.957" stroke="#27A209" stroke-width="3"/>
<rect id="Rectangle 49" x="1082.29" y="780.027" width="169.39" height="55.957" stroke="#27A209" stroke-width="3"/>
<rect id="Rectangle 50" x="1082.29" y="706.164" width="169.39" height="55.957" stroke="#27A209" stroke-width="3"/>
<rect id="Rectangle 51_2" x="1082.29" y="635.658" width="169.39" height="55.957" stroke="#F61717" stroke-width="3"/>
<rect id="Rectangle 52_2" x="1082.29" y="570.748" width="169.39" height="55.957" stroke="#F61717" stroke-width="3"/>
<rect id="Rectangle 53_3" x="897.381" y="918.801" width="169.39" height="55.957" stroke="#F61717" stroke-width="3"/>
<rect id="Rectangle 54_3" x="897.381" y="853.891" width="169.39" height="55.957" stroke="#F61717" stroke-width="3"/>
<rect id="Rectangle 55_2" x="1082.29" y="917.682" width="169.39" height="55.957" stroke="#F61717" stroke-width="3"/>
<rect id="Rectangle 56_2" x="1082.29" y="852.771" width="169.39" height="55.957" stroke="#F61717" stroke-width="3"/>
<rect id="Rectangle 57_2" x="535.325" y="917.682" width="169.39" height="55.957" stroke="#F61717" stroke-width="3"/>
<rect id="Rectangle 58_2" x="535.325" y="852.771" width="169.39" height="55.957" stroke="#F61717" stroke-width="3"/>
</g>
<g id="Group 8">
<rect id="Rectangle 59" x="19.3958" y="222.696" width="1386.16" height="119.748" fill="#D9D9D9"/>
<rect id="Rectangle 60" width="730.805" height="138.356" transform="matrix(-0.00826149 0.999966 -0.999981 -0.0061887 335.763 247.054)" fill="#D9D9D9"/>
<rect id="Rectangle 62" width="745.41" height="138.356" transform="matrix(-0.00826149 0.999966 -0.999981 -0.0061887 1411.71 226.854)" fill="#D9D9D9"/>
<rect id="Rectangle 61" width="730.805" height="138.356" transform="matrix(-0.00826149 0.999966 -0.999981 -0.0061887 874.967 248.173)" fill="#D9D9D9"/>
<text id="WJAZD/WYJAZD" fill="#050000" xml:space="preserve" style="white-space: pre" font-family="Inter" font-size="14" font-weight="bold" letter-spacing="0em"><tspan x="19.3958" y="268.742">WJAZD/</tspan><tspan x="19.3958" y="285.742">WYJAZD</tspan></text>
</g>
<g id="led1">
<rect id="Rectangle 63" width="82.6844" height="52.8988" transform="matrix(-0.0187291 0.999825 -0.999902 -0.0140309 214.894 260.742)" fill="#0A0000"/>
<text id="LED 1" transform="matrix(-0.0187291 0.999825 -0.999902 -0.0140309 199.12 265.96)" fill="white" xml:space="preserve" style="white-space: pre" font-family="Inter" font-size="20" font-weight="bold" letter-spacing="0em"><tspan x="0" y="19.2727">LED 1</tspan></text>
</g>
<g id="led2">
<rect id="Rectangle 63_2" width="86.015" height="54.8544" transform="matrix(-0.0187291 0.999825 -0.999902 -0.0140309 774.849 260.77)" fill="#0A0000"/>
<text id="LED 2" transform="matrix(-0.0187291 0.999825 -0.999902 -0.0140309 758.491 266.199)" fill="white" xml:space="preserve" style="white-space: pre" font-family="Inter" font-size="20" font-weight="bold" letter-spacing="0em"><tspan x="0" y="19.2727">LED 2</tspan></text>
</g>
<g id="led3">
<rect id="Rectangle 63_3" width="92.3945" height="50.0234" transform="matrix(-0.0187291 0.999825 -0.999902 -0.0140309 1287.02 266.702)" fill="#0A0000"/>
<text id="LED 3" transform="matrix(-0.0187291 0.999825 -0.999902 -0.0140309 1272.08 272.571)" fill="white" xml:space="preserve" style="white-space: pre" font-family="Inter" font-size="20" font-weight="bold" letter-spacing="0em"><tspan x="0" y="19.2727">LED 3</tspan></text>
</g>
<rect id="Rectangle 68" x="536.825" y="343.943" width="867.226" height="669.604" stroke="black" stroke-width="3"/>
<rect id="Rectangle 67" x="10" y="19" width="1406" height="189" stroke="black" stroke-width="3"/>
<rect id="Rectangle 68_2" x="12.9305" y="343.562" width="508.171" height="671.484" stroke="black" stroke-width="3"/>
<g id="C">
<rect id="Rectangle 63_4" width="36.9417" height="60.4337" transform="matrix(0.999996 0.0029068 -0.00388042 0.999992 919.8 341.325)" fill="#0A0000"/>
<text id="C_2" transform="matrix(1 -0.000797812 -0.000835673 0.999997 919.61 349.159)" fill="white" xml:space="preserve" style="white-space: pre" font-family="Inter" font-size="36" font-weight="bold" letter-spacing="0em"><tspan x="0" y="35.0909">C</tspan></text>
</g>
<g id="B">
<rect id="Rectangle 63_5" width="36.9417" height="60.4337" transform="matrix(0.999996 0.0029068 -0.00388042 0.999992 318.53 346.92)" fill="#0A0000"/>
<text id="B_2" transform="matrix(1 -0.000797812 -0.000835673 0.999997 318.339 354.754)" fill="white" xml:space="preserve" style="white-space: pre" font-family="Inter" font-size="36" font-weight="bold" letter-spacing="0em"><tspan x="0" y="35.0909">B</tspan></text>
</g>
<g id="A">
<rect id="Rectangle 63_6" width="36.9417" height="60.4337" transform="matrix(0.999996 0.0029068 -0.00388042 0.999992 897.438 174)" fill="#0A0000"/>
<text id="A_2" transform="matrix(1 -0.000797812 -0.000835673 0.999997 897.248 181.834)" fill="white" xml:space="preserve" style="white-space: pre" font-family="Inter" font-size="36" font-weight="bold" letter-spacing="0em"><tspan x="0" y="35.0909">A</tspan></text>
</g>
</g>
<defs>
<clipPath id="clip0_5_78">
<rect width="1440" height="1024" fill="white"/>
</clipPath>
</defs>
</svg>
